<svg width="71" height="72" viewBox="0 0 71 72" fill="none" xmlns="http://www.w3.org/2000/svg">
<g clip-path="url(#clip0_121_4997)">
<path d="M62.7534 66.6903L64.4217 62.2786L66.09 66.6903H62.7534ZM66.1533 59.772H62.6856L57.8435 71.7355H60.8455L61.9487 68.8142H66.8903L67.9934 71.7355H70.9955L66.1533 59.772ZM41.7075 69.6573C39.7499 69.6573 38.1675 67.8799 38.1675 65.6831C38.1675 63.4864 39.7499 61.7089 41.7075 61.7089C43.6652 61.7089 45.2476 63.4909 45.2476 65.6831C45.2476 67.8753 43.6607 69.6573 41.7075 69.6573ZM41.7075 59.3618C38.2443 59.3618 35.4367 62.192 35.4367 65.6831C35.4367 69.1742 38.2443 72.0044 41.7075 72.0044C45.1707 72.0044 47.9784 69.1742 47.9784 65.6831C47.9784 62.192 45.1707 59.3618 41.7075 59.3618ZM16.9678 69.6573C15.0147 69.6573 13.4323 67.8799 13.4323 65.6831C13.4323 63.4864 15.0147 61.7089 16.9678 61.7089C18.921 61.7089 20.5079 63.4909 20.5079 65.6831C20.5079 67.8753 18.9255 69.6573 16.9678 69.6573ZM16.9678 59.3618C13.5046 59.3618 10.7015 62.192 10.7015 65.6831C10.7015 69.1742 13.5046 72.0044 16.9678 72.0044C20.431 72.0044 23.2387 69.1742 23.2387 65.6831C23.2387 62.192 20.431 59.3618 16.9678 59.3618ZM32.4618 59.772L29.3919 64.6121L26.3176 59.772H23.311L28.0672 67.2737V71.7355H30.7121V67.2737L35.4684 59.7674H32.4618V59.772ZM58.4764 59.772H48.331V62.0644H52.0881V71.7355H54.7375V62.0644H58.481V59.772H58.4764ZM0 62.0644H3.76159V71.7355H6.40646V62.0644H10.15V59.772H0V62.0644Z" fill="#858585"/>
<path d="M59.1681 0H11.7007V47.8496H59.1681V0Z" fill="#858585"/>
<path d="M43.3533 13.4903C41.1515 12.7748 38.4072 12.3555 35.4368 12.3555C32.4664 12.3555 29.7221 12.7793 27.5203 13.4903C21.6609 15.3908 17.6326 19.3331 17.6326 23.8906C17.6326 30.3031 25.6033 35.4987 35.4368 35.4987C45.2703 35.4987 53.2366 30.2985 53.2366 23.8906C53.2366 19.3331 49.2127 15.3908 43.3533 13.4903ZM35.4368 30.5081C33.972 30.5081 32.7694 27.6004 32.7015 23.9453C33.5832 24.0273 34.5009 24.0683 35.4368 24.0683C36.3727 24.0683 37.2905 24.0273 38.1721 23.9453C38.0998 27.6004 36.9017 30.5081 35.4368 30.5081ZM32.8869 21.0832C33.2848 18.5173 34.2794 16.7034 35.4368 16.7034C36.5942 16.7034 37.5844 18.5218 37.9867 21.0832C37.1729 21.1561 36.3184 21.1971 35.4368 21.1971C34.5552 21.1971 33.7007 21.1561 32.8869 21.0832ZM39.5465 20.8917C38.9498 16.8674 37.3357 13.978 35.4368 13.978C33.5379 13.978 31.9239 16.8629 31.3271 20.8917C27.7102 20.322 25.1829 19.0277 25.1829 17.5192C25.1829 15.4865 29.7718 13.8367 35.4368 13.8367C41.1018 13.8367 45.6863 15.4865 45.6863 17.5192C45.6863 19.0277 43.1589 20.322 39.542 20.8917M20.2322 23.4622C20.2322 21.4979 20.9827 19.6566 22.2893 18.0706C22.2758 18.18 22.2667 18.2939 22.2667 18.4033C22.2667 20.8735 25.9515 22.9791 31.0875 23.7493C31.0875 23.9362 31.0784 24.123 31.0784 24.3144C31.0784 28.913 32.3444 32.8051 34.094 34.1451C26.3267 33.6665 20.2322 29.068 20.2322 23.4622ZM36.7751 34.1451C38.5248 32.8006 39.7862 28.9084 39.7862 24.3144C39.7862 24.1276 39.7862 23.9407 39.7816 23.7493C44.9177 22.9745 48.6024 20.8735 48.6024 18.4033C48.6024 18.2939 48.5933 18.18 48.5798 18.0706C49.8864 19.6566 50.6369 21.4979 50.6369 23.4622C50.6369 29.068 44.5424 33.6665 36.7751 34.1451Z" fill="white"/>
</g>
<defs>
<clipPath id="clip0_121_4997">
<rect width="71" height="72" fill="white"/>
</clipPath>
</defs>
</svg>
