<svg width="72" height="72" viewBox="0 0 72 72" fill="none" xmlns="http://www.w3.org/2000/svg">
<g clip-path="url(#clip0_121_6557)">
<path d="M32.528 38.712H41.256V35.8H40.296C40.296 36.064 40.248 36.328 40.144 36.576C40.04 36.824 39.888 37.04 39.696 37.224C39.504 37.408 39.272 37.544 39.016 37.632C38.768 37.72 38.496 37.752 38.232 37.736H36.888V33.376H38.352V32.416H32.52V33.376H33.984V37.728H32.512V38.704L32.528 38.712Z" fill="#858585"/>
<path d="M45.4561 38.712H48.8561L51.7361 33.384H53.1761V32.416H48.8321V33.384H50.0881L47.9921 37.264L45.8641 33.384H47.3841V32.416H41.0801V33.384H42.5201L45.4561 38.712Z" fill="#858585"/>
<path d="M15.136 32.416H8.83203V33.384H10.272L13.208 38.712H16.608L19.488 33.384H20.936V32.416H16.584V33.384H17.84L15.736 37.264L13.608 33.384H15.136V32.416Z" fill="#858585"/>
<path d="M21.7759 35.5922C21.7759 37.4482 23.2719 38.9202 26.2639 38.9202C29.2559 38.9202 30.7359 37.4482 30.7359 35.5922C30.7359 33.7362 29.1679 32.3042 26.2479 32.3042C23.3279 32.3042 21.7759 33.7442 21.7759 35.5922ZM27.8159 35.5922C27.7919 36.7362 27.3199 37.9282 26.2239 37.9122C25.1199 37.8882 24.6879 36.7122 24.7039 35.5362C24.7199 34.3602 25.3119 33.2642 26.3039 33.2802C27.3039 33.2962 27.8319 34.3762 27.8079 35.5922H27.8159Z" fill="#858585"/>
<path d="M54.0161 35.5922C54.0161 37.4482 55.5041 38.9202 58.5041 38.9202C61.5041 38.9202 62.9761 37.4482 62.9761 35.5922C62.9761 33.7362 61.4081 32.3042 58.4881 32.3042C55.5681 32.3042 54.0161 33.7442 54.0161 35.5922ZM58.5441 33.2962C59.5441 33.2962 60.0641 34.3922 60.0481 35.6082C60.0481 36.7522 59.5521 37.9442 58.4561 37.9282C57.3601 37.9042 56.9201 36.7282 56.9361 35.5522C56.9601 34.3762 57.5361 33.2642 58.5361 33.2802V33.2962H58.5441Z" fill="#858585"/>
<path d="M65.6241 15.5521L61.9681 19.2081C66.1041 25.6161 67.7281 33.3201 66.5201 40.8561C65.3121 48.3841 61.3601 55.2001 55.4241 59.9921C49.4881 64.7841 41.9921 67.2081 34.3761 66.8001C26.7601 66.3921 19.5681 63.1761 14.1761 57.7841C8.79214 52.3841 5.59214 45.1841 5.19214 37.5681C4.80014 29.9521 7.23214 22.4561 12.0401 16.5361C16.8401 10.6081 23.6641 6.67207 31.2001 5.48007C38.7361 4.28807 46.4401 5.92007 52.8401 10.0721L56.4961 6.41607C49.1201 1.28807 40.0801 -0.879928 31.1761 0.328072C22.2721 1.52807 14.1361 6.02407 8.37614 12.9201C2.61614 19.8081 -0.359863 28.6081 0.0321372 37.5921C0.432137 46.5681 4.16814 55.0721 10.5201 61.4321C16.8721 67.7921 25.3681 71.5521 34.3441 71.9601C43.3201 72.3761 52.1281 69.4161 59.0321 63.6641C65.9361 57.9121 70.4481 49.7921 71.6641 40.8881C72.8881 31.9841 70.7281 22.9441 65.6241 15.5521Z" fill="#858585"/>
<path d="M54.1201 1.43213V2.44013C56.2961 3.62413 58.3521 5.00813 60.2561 6.58413L55.1201 11.7201C57.0561 13.2401 58.8001 14.9761 60.3201 16.9121L65.4561 11.7761C67.0241 13.6801 68.4241 15.7281 69.6161 17.8881H70.6001V1.43213H54.1281H54.1201Z" fill="#858585"/>
</g>
<defs>
<clipPath id="clip0_121_6557">
<rect width="72" height="72" fill="white"/>
</clipPath>
</defs>
</svg>
