<svg width="115" height="71" viewBox="0 0 115 71" fill="none" xmlns="http://www.w3.org/2000/svg">
<g clip-path="url(#clip0_121_8050)">
<path d="M19.0006 0.0330506C23.6484 -0.243021 28.2896 1.25125 32.0691 3.94898C32.2337 4.06624 32.3344 4.30948 32.5433 4.31953C32.7011 4.31953 33.1517 3.86589 33.333 3.73925C40.4113 -1.20056 49.4256 -1.1952 56.5609 3.63471C56.753 3.76471 57.3682 4.36577 57.5535 4.31216L58.5602 3.52951C64.9346 -0.793155 73.2318 -1.13489 79.9359 2.65104C80.7888 3.13283 81.5893 3.73322 82.375 4.31149H82.4657C83.2514 3.73322 84.0519 3.13283 84.9048 2.65104C95.3906 -3.27177 108.594 1.19965 113.38 12.1735C117.322 21.2108 113.843 32.0433 105.438 37.1788C98.5382 41.3942 90.0288 41.0592 83.3676 36.5516C83.1514 36.4055 82.6672 35.9143 82.461 35.8775C82.2548 35.8406 81.6813 36.4109 81.4731 36.5516C75.0295 40.9111 66.8016 41.3801 59.9926 37.5346C59.1135 37.0381 58.3036 36.3747 57.4561 35.8661C57.2997 35.8661 56.8464 36.3204 56.6664 36.4464C50.9749 40.4199 43.5065 41.3225 37.1126 38.5484C35.5424 37.8669 33.9784 36.9395 32.644 35.8755L32.5439 35.8668C32.3861 35.8668 31.9355 36.3204 31.7542 36.447C19.4398 45.0394 2.42982 37.8602 0.223073 23.0254C-1.51963 11.3118 7.16768 0.735961 19.0006 0.0330506ZM29.2325 32.6202C29.2734 32.4574 29.1935 32.448 29.1277 32.3582C24.2468 25.6534 23.4517 17.6179 27.4595 10.2517L29.2325 7.61698C28.0908 6.77871 26.8148 6.08183 25.4811 5.59201C14.2157 1.45495 2.84283 10.952 4.82863 22.7306C6.70766 33.8773 19.6963 39.2413 28.9659 32.7214C29.0525 32.6604 29.1109 32.5961 29.2325 32.6202ZM35.8541 32.6202C35.9756 32.5968 36.034 32.6598 36.1207 32.7214C41.0573 36.2319 47.9106 36.5114 53.0896 33.299C53.4496 33.0759 53.7955 32.8092 54.1433 32.5673L52.4758 30.0378C48.6627 23.3216 49.0059 15.0984 53.3563 8.71859L54.1433 7.72084C54.1803 7.59956 53.7384 7.28127 53.6175 7.19751C48.8172 3.85718 41.845 3.83507 36.9077 6.88526C36.5478 7.10772 36.2026 7.37508 35.8541 7.61631C37.3805 9.64664 38.7075 11.9906 39.4086 14.4498C41.2588 20.9421 39.8713 26.9835 35.9588 32.3576C35.893 32.448 35.8124 32.4574 35.8541 32.6196V32.6202ZM60.7663 32.6202C60.9026 32.5861 60.9469 32.6745 61.0295 32.7248C64.9447 35.1116 68.4939 36.1737 73.1196 35.2436C75.1967 34.8261 77.3706 33.8237 79.0555 32.5646C79.1079 32.3757 78.5062 31.7652 78.3739 31.5709C73.405 24.2704 73.6387 15.5239 78.5841 8.29912C78.6761 8.1651 79.0146 7.8361 79.0528 7.71548C79.0911 7.59487 78.9266 7.47761 78.8447 7.40792C78.574 7.17808 77.9535 6.8216 77.6224 6.63465C72.4192 3.70105 65.8856 3.99723 61.0322 7.46286C60.9449 7.52518 60.8905 7.5875 60.7656 7.56404C61.1887 8.19928 61.6708 8.8057 62.0771 9.45366C66.3536 16.2771 66.0702 25.0912 61.4479 31.6754C61.3727 31.7833 60.6917 32.566 60.7656 32.6196L60.7663 32.6202ZM93.6311 4.64586C91.5304 4.82075 89.0786 5.58464 87.2163 6.63465C86.9873 6.76397 85.8275 7.47828 85.7852 7.62301C85.7302 7.81063 86.3413 8.43112 86.4648 8.61339C89.5809 13.1934 90.7769 18.7744 89.6541 24.1632C89.1437 26.615 88.0437 29.1646 86.6757 31.2566C86.4783 31.5588 86.1452 31.8999 85.9397 32.2001C85.6227 32.6624 85.9786 32.7703 86.3749 33.0256C97.7068 40.3154 112.245 30.9068 110.167 17.6829C108.919 9.74247 101.711 3.9731 93.6304 4.64519L93.6311 4.64586ZM32.5433 10.9191C32.1746 11.4552 31.7723 11.9906 31.4533 12.5581C29.2956 16.4024 28.9464 21.1746 30.4077 25.3144C30.9067 26.7282 31.6709 28.053 32.5426 29.2652C33.335 28.1649 34.0536 26.9742 34.5438 25.705C36.2106 21.3884 35.8285 16.3695 33.5271 12.3484C33.2397 11.8465 32.8958 11.3761 32.5426 10.9191H32.5433ZM57.4031 29.2658C57.8087 28.9147 58.1673 28.3157 58.44 27.8366C60.3029 24.5592 60.9637 20.7264 60.2431 17.0503C59.8791 15.1935 58.8362 12.6238 57.665 11.1302C57.6032 11.0511 57.5045 10.9365 57.4031 10.9191C57.342 11.2093 57.0579 11.4559 56.8914 11.7199C53.7646 16.6791 53.6209 22.8666 56.5764 27.9418C56.8302 28.3773 57.2479 28.7834 57.4031 29.2665V29.2658ZM82.3146 10.9191C82.3482 11.0572 82.2602 11.0987 82.2098 11.1818C81.9473 11.61 81.6296 12.016 81.3825 12.4536C78.7184 17.1669 78.707 23.01 81.3825 27.732C81.5685 28.0597 81.9285 28.6842 82.1575 28.9509C82.2293 29.0346 82.3515 29.1968 82.4718 29.1613C82.6652 29.1043 83.8934 26.8944 84.0526 26.544C86.0928 22.0585 85.8927 16.7521 83.4563 12.4536C83.1614 11.9336 82.776 11.283 82.3139 10.9191H82.3146Z" fill="#858585"/>
<path d="M45.104 70.4668H37.8512C37.8599 70.3361 37.7934 70.2216 37.7316 70.1137C37.367 69.4764 36.8861 68.8291 36.4986 68.1986C36.3126 67.8957 36.095 67.3516 35.9083 67.1097C35.8546 67.04 35.7921 66.9951 35.6988 67.0038L22.3999 67.0079C22.4247 67.1854 22.3549 67.3128 22.279 67.4642C21.8385 68.3407 21.1253 69.2419 20.6256 70.113C20.5638 70.2209 20.4974 70.3355 20.5068 70.4661H13.4641L25.6536 52.1717L24.4495 50.8604L23.555 49.7085H31.2806L40.3218 63.2313C41.7851 65.4198 43.3096 67.6049 44.736 69.8369C44.8495 70.0145 45.1362 70.178 45.1033 70.4661L45.104 70.4668ZM24.8175 63.0236H33.437C33.3819 62.846 33.1704 62.7475 33.0696 62.6035C32.0462 61.1434 30.8864 59.1706 29.9825 57.61C29.7723 57.2469 29.4728 56.7584 29.3183 56.3851C29.2639 56.2538 29.2015 56.1546 29.2323 55.9992C28.9254 55.9161 28.9879 56.29 28.9006 56.4548C28.2344 57.7219 27.3479 59.1023 26.5898 60.3359C26.1553 61.0435 25.657 61.9562 25.1835 62.6028C25.0774 62.7475 24.8753 62.846 24.8168 63.0236H24.8175Z" fill="#858585"/>
<path d="M80.7901 49.709C81.1561 49.9871 81.3516 50.4092 81.6323 50.7563C82.5389 51.8773 83.4757 52.9776 84.3628 54.1134C86.0108 56.2235 88.2283 58.7255 88.7259 61.3991C89.5332 65.7345 86.8355 68.8638 82.8733 70.1336C77.6862 71.7967 68.1426 71.4335 65.6498 65.5436C64.6371 63.1507 65.0346 60.4195 66.7062 58.4119C68.8599 55.8248 74.231 54.4638 77.4095 55.0729C77.893 55.1654 78.3598 55.3979 78.8453 55.475C78.6982 55.1145 78.216 54.9289 78.0011 54.6923C77.9138 54.5965 77.887 54.4645 77.797 54.3714C76.339 52.8604 74.9825 51.2763 73.5897 49.709H80.7901ZM76.0771 58.7416C74.5829 58.8803 72.7415 59.6576 71.8564 60.9274C70.301 63.1594 71.6139 65.4853 73.9013 66.4341C75.8609 67.2469 78.9145 67.2563 80.776 66.154C82.7598 64.9794 83.5872 62.6368 82.0506 60.7177C80.7116 59.0452 78.1086 58.5527 76.0771 58.7416Z" fill="#858585"/>
<path d="M50.1493 55.4751V63.8095C50.1493 63.8477 50.2313 64.4066 50.2528 64.5453C50.4576 65.868 51.3393 66.7237 52.6368 66.9904C53.3755 67.1418 54.1774 67.1519 54.9154 66.9904C55.8811 66.7786 57.0966 65.9899 57.2813 64.9473C57.3135 64.7657 57.2726 64.5962 57.2941 64.436C57.3122 64.304 57.4022 64.241 57.4022 64.2296V55.4758H63.4986V65.2783C63.4986 65.2957 63.4167 65.3319 63.4066 65.3963C62.9103 68.5945 60.3188 70.1377 57.3471 70.6751C53.3285 71.4028 46.118 71.25 44.3874 66.6212C44.3135 66.4235 44.0522 65.4941 44.0522 65.3829V55.4758H50.1487L50.1493 55.4751Z" fill="#858585"/>
<path d="M96.925 55.2651H90.6184V70.4665H96.925V55.2651Z" fill="#858585"/>
</g>
<defs>
<clipPath id="clip0_121_8050">
<rect width="115" height="71" fill="white"/>
</clipPath>
</defs>
</svg>
