<svg width="71" height="72" viewBox="0 0 71 72" fill="none" xmlns="http://www.w3.org/2000/svg">
<g clip-path="url(#clip0_121_3986)">
<path fill-rule="evenodd" clip-rule="evenodd" d="M35.502 0C15.8967 0 0 16.1206 0 36.002C0 55.8835 15.8967 72 35.502 72C55.1073 72 71 55.8835 71 36.002C71 16.1206 55.1073 0 35.502 0ZM6.44353 19.0785C12.3619 8.66868 23.2735 2.19994 35.1102 2.04427L30.5169 32.8967L6.2577 52.7782C0.432262 42.3028 0.496899 29.4882 6.44353 19.0785ZM35.6353 70.136C23.7663 70.1974 12.7618 63.8844 6.68996 53.536L35.5101 41.4384L64.4555 53.3476C58.4442 63.7287 47.472 70.1032 35.6353 70.136ZM40.3498 33.3064L35.9747 2.04427C47.7791 2.23272 58.5977 8.67277 64.5161 19.0211C70.4667 29.3653 70.5879 42.0898 64.8877 52.561L40.3498 33.3064Z" fill="#858585"/>
</g>
<defs>
<clipPath id="clip0_121_3986">
<rect width="71" height="72" fill="white"/>
</clipPath>
</defs>
</svg>
