<svg width="75" height="75" viewBox="0 0 75 75" fill="none" xmlns="http://www.w3.org/2000/svg">
<g clip-path="url(#clip0_121_2995)">
<path d="M37.5 0C16.7902 0 0 16.7902 0 37.5C0 58.2098 16.7902 75 37.5 75C58.2098 75 75 58.2098 75 37.5C75 16.7902 58.2098 0 37.5 0ZM72.5619 37.5C72.5619 56.8629 56.8658 72.5619 37.5 72.5619C18.1342 72.5619 2.4381 56.8629 2.4381 37.5C2.4381 18.1371 18.1371 2.4381 37.5 2.4381C56.8629 2.4381 72.5619 18.1371 72.5619 37.5Z" fill="#858585"/>
<path d="M37.4999 15.2778V16.4961C49.0798 16.4961 58.5039 25.9173 58.5039 37.5002H59.7222C59.7222 25.2284 49.7717 15.2778 37.4999 15.2778ZM37.4999 58.5042C25.9201 58.5042 16.4959 49.083 16.4959 37.5002H15.2776C15.2776 49.772 25.2281 59.7225 37.4999 59.7225" fill="#858585"/>
<path d="M55.4553 21.6753C55.9639 22.2179 56.6972 23.0932 57.1097 23.624L64.6961 18.8424C64.3176 18.3501 63.7143 17.6019 63.2619 17.0741L58.4582 20.2293L58.1299 20.5087L58.3739 20.1539L60.4956 15.949L58.9949 14.4586L54.7589 16.5655L54.4026 16.808L54.6864 16.4827L57.8653 11.713C57.3064 11.2398 56.7682 10.8066 56.0836 10.2817L51.2681 17.8089C51.8787 18.2747 52.6815 18.9592 53.1961 19.425L57.7293 17.0889L58.0205 16.876L57.8061 17.1643L55.4553 21.6709V21.6753Z" fill="#858585"/>
<path d="M38.2408 12.1359L40.3137 7.52435L40.4453 7.11479L40.4083 7.54209L40.6257 13.7046C41.3531 13.7726 42.1042 13.8732 42.8434 13.9959L42.5063 4.8689C41.4714 4.75506 40.4408 4.67374 39.4088 4.63086L37.367 9.66526L37.2945 10.0393L37.2221 9.66526L35.1817 4.63086C34.1512 4.67522 33.1191 4.75506 32.0842 4.8689L31.7471 13.9959C32.4878 13.8732 33.2389 13.7756 33.9649 13.7046L34.1822 7.54209L34.1452 7.11479L34.2768 7.52435L36.3497 12.1359H38.2378H38.2408Z" fill="#858585"/>
<path d="M21.4742 19.4088C22.6718 18.155 23.3504 16.7075 22.1528 15.3251C21.5008 14.574 20.4067 14.4113 19.4989 14.781L19.4087 14.8165L19.4368 14.7381C19.5713 14.3818 19.6571 13.2433 18.6812 12.4582C18.2051 12.0753 17.6078 11.9333 17.0046 11.9939C15.8794 12.1078 15.013 12.8707 12.6562 15.4803C11.945 16.2684 10.9101 17.5103 10.2876 18.3161L16.7621 24.4151C18.9074 22.0568 19.7827 21.1801 21.4742 19.4103V19.4088ZM13.0273 17.9169C14.3314 16.3334 15.7168 14.8963 16.3451 14.3271C16.5433 14.1482 16.7591 13.9678 17.0208 13.8983C17.4466 13.783 17.8843 14.0816 17.9834 14.5148C18.0824 14.9495 17.8074 15.3635 17.5014 15.7051C16.8124 16.4769 14.2826 19.1042 14.2826 19.1042L13.0273 17.9169ZM15.5615 20.3063C15.5615 20.3063 18.0248 17.7203 18.8276 16.8938C19.147 16.5656 19.3525 16.366 19.5728 16.2595C19.8567 16.122 20.1671 16.0939 20.4451 16.2773C20.7186 16.4591 20.8443 16.7711 20.7748 17.0816C20.6935 17.4512 20.3889 17.8031 20.1376 18.0722C19.799 18.433 16.8774 21.5379 16.873 21.5423L15.56 20.3063H15.5615Z" fill="#858585"/>
<path d="M37.4999 15.2778V37.5002H15.2776C15.2776 25.2195 25.2192 15.2778 37.4999 15.2778Z" fill="#858585"/>
<path d="M59.7223 37.5C59.7223 49.7807 49.7807 59.7223 37.5 59.7223V37.5H59.7223Z" fill="#858585"/>
</g>
<defs>
<clipPath id="clip0_121_2995">
<rect width="75" height="75" fill="white"/>
</clipPath>
</defs>
</svg>
