<svg width="111" height="71" viewBox="0 0 111 71" fill="none" xmlns="http://www.w3.org/2000/svg">
<g clip-path="url(#clip0_121_7130)">
<path d="M12.8128 59.5058L14.5062 59.7092C15.2723 59.7906 15.353 60.4416 15.353 60.8485V62.8421H7.57127V60.8485C7.57127 60.4416 7.65191 59.7906 8.41798 59.7092L10.1114 59.5058V57.7969H0.0314941V59.5058L1.72492 59.7092C2.49099 59.7906 2.57163 60.4416 2.57163 60.8485V67.4399C2.57163 67.8467 2.49099 68.4977 1.72492 68.5791L0.0314941 68.7825V70.4914H10.1114V68.7825L8.41798 68.5791C7.65191 68.4977 7.57127 67.8467 7.57127 67.4399V65.4462H15.3126V67.4399C15.3126 67.8467 15.232 68.4977 14.4659 68.5791L12.7725 68.7825V70.4914H22.8524V68.7825L21.159 68.5791C20.3929 68.4977 20.3123 67.8467 20.3123 67.4399V60.8485C20.3123 60.4416 20.3929 59.7906 21.159 59.7092L22.8524 59.5058V57.7969H12.7725V59.5058H12.8128Z" fill="#858585"/>
<path d="M79.945 57.7969H67.5265V59.5058L69.0183 59.6685C69.5425 59.7499 69.9054 59.9533 69.9054 60.6857V67.3992C69.9054 67.806 69.8247 68.457 69.0587 68.5384L67.3652 68.7419V70.4507H79.945C84.4608 70.4507 88.1702 68.6198 88.1702 64.1035C88.1702 59.5871 84.4608 57.7969 79.945 57.7969ZM79.0176 68.0502H74.784V60.2381H79.0176C81.5174 60.2381 82.3641 61.4181 82.3641 64.1441C82.3641 66.8295 81.5174 68.0502 79.0176 68.0502Z" fill="#858585"/>
<path d="M109.298 68.5791C108.491 68.4977 108.25 67.9688 108.008 67.6026L102.202 58.6513C101.798 58.0003 101.476 57.7969 100.871 57.7969H91.3556V59.5058L93.6538 59.7499C93.9764 59.7906 94.4199 60.2381 94.057 60.8078L89.7428 67.8467C89.5815 68.1315 89.3396 68.457 88.8558 68.5384L87.1624 68.7419V70.4507H95.186V68.7419L93.8151 68.6198C93.2103 68.5384 92.8877 68.1315 93.2103 67.6433L93.8554 66.5854H101.597L102.161 67.4399C102.685 68.2129 102.04 68.5384 101.476 68.5791L100.065 68.7419V70.4507H110.951V68.7419L109.298 68.5791ZM95.186 64.3476L97.5648 60.4416L100.105 64.3476H95.186Z" fill="#858585"/>
<path d="M58.5354 59.5054L60.2288 59.7089C60.9949 59.7902 61.0755 60.4412 61.0755 60.8481V67.1954L54.4228 58.3255C54.1405 57.9186 53.8583 57.7965 53.1326 57.7965H44.5042V59.5054L46.1976 59.7089C46.9636 59.7902 47.0443 60.4412 47.0443 60.8481V67.4395C47.0443 67.8464 46.9636 68.4974 46.1976 68.5788L44.5042 68.7822V70.4911H52.5681V68.7822L50.8747 68.5788C50.1086 68.4974 50.0279 67.8464 50.0279 67.4395V61.0922L56.6807 69.9215C57.0032 70.3284 57.2452 70.4504 57.9709 70.4504H58.0516H64.0995V60.8074C64.0995 60.4006 64.1801 59.7496 64.9462 59.6682L66.6396 59.4647V57.7559H58.616L58.5354 59.5054Z" fill="#858585"/>
<path d="M33.658 57.3491C25.4731 57.3491 23.3765 60.9703 23.3765 64.1033C23.3765 67.2362 25.4731 70.8981 33.658 70.8981C41.8429 70.8981 43.9395 67.2769 43.9395 64.144C43.9395 60.9703 41.8429 57.3491 33.658 57.3491ZM33.658 68.4975C30.4727 68.4975 29.1825 67.1549 29.1825 64.144C29.1825 61.1331 30.513 59.7904 33.658 59.7904C36.8432 59.7904 38.1335 61.1331 38.1335 64.144C38.1335 67.1549 36.8432 68.4975 33.658 68.4975Z" fill="#858585"/>
<path d="M69.4217 4.29248C68.0508 10.5177 67.4863 13.4065 66.3574 17.8822C65.2688 22.1951 64.4221 26.2231 62.9705 28.1761C61.519 30.1698 59.5434 30.5767 58.2128 30.7395C57.5274 30.8208 57.0032 30.8615 55.5114 30.8615C54.0196 30.8615 53.4954 30.8208 52.81 30.7395C51.4794 30.5767 49.5038 30.1698 48.0523 28.1761C46.6008 26.2231 45.7541 22.1951 44.7057 17.8822C43.5768 13.3658 43.0123 10.5177 41.6415 4.29248C41.6415 4.29248 40.2706 4.33317 39.6658 4.37386C38.8191 4.41454 38.174 4.49592 37.4885 4.57729C37.4885 4.57729 38.2949 17.3939 38.6578 22.8461C39.0207 28.5423 39.7061 38.1853 40.3109 45.4684C40.3109 45.4684 41.4802 45.6718 43.4155 45.7532C45.4315 45.8753 46.3588 45.8753 46.3588 45.8753C47.2056 42.661 48.2136 38.226 49.3828 36.3137C50.3505 34.7675 51.802 34.6048 52.6487 34.4827C53.9389 34.32 55.0679 34.2793 55.5517 34.2793C56.0759 34.2793 57.1645 34.2793 58.4547 34.4827C59.3015 34.6048 60.753 34.7675 61.7206 36.3137C62.8899 38.226 63.9382 42.661 64.7446 45.8753C64.7446 45.8753 65.6316 45.8753 67.6476 45.7532C69.583 45.6312 70.7522 45.4684 70.7522 45.4684C71.357 38.1853 72.0425 28.583 72.4053 22.8461C72.7682 17.4346 73.5746 4.57729 73.5746 4.57729C72.8892 4.49592 72.2038 4.41454 71.3974 4.37386C70.7926 4.33317 69.4217 4.29248 69.4217 4.29248Z" fill="#858585"/>
<path d="M85.4285 11.8603C84.6221 3.72276 79.2192 2.01388 74.5018 1.20013C72.123 0.793253 67.8894 0.467751 65.188 0.345689C62.8091 0.182937 57.245 0.101562 55.5516 0.101562C53.8582 0.101562 48.2941 0.182938 45.9152 0.345689C43.2138 0.467751 38.9802 0.793253 36.6014 1.20013C31.884 2.01388 26.4811 3.72276 25.6747 11.8603C25.4328 14.0981 25.3925 16.9869 25.4328 20.0792C25.5134 25.2465 25.957 28.705 26.1989 31.1463C26.3602 32.8145 27.0456 37.7784 27.9326 40.3417C29.1422 43.8815 30.2308 44.8987 31.5211 45.9566C33.8596 47.8689 37.7303 48.4792 38.5367 48.642C42.8912 49.415 51.6809 49.5778 55.5919 49.5778C59.4626 49.5778 68.2926 49.4557 72.6471 48.642C73.4535 48.4792 77.3242 47.9096 79.6627 45.9566C80.953 44.8987 82.0416 43.8815 83.2512 40.3417C84.1382 37.7784 84.8237 32.7738 84.9849 31.1463C85.2269 28.7457 85.6704 25.2465 85.751 20.0792C85.7107 16.9463 85.6301 14.0574 85.4285 11.8603ZM82.4448 25.5314C81.961 32.0414 81.3965 35.9474 80.5901 38.7549C79.8643 41.2368 78.9773 42.8643 77.6871 44.0443C75.5098 46.038 72.5262 46.4448 70.7521 46.7296C66.962 47.2993 60.5512 47.5027 55.5516 47.5027C50.5116 47.5027 44.1411 47.2993 40.3511 46.7296C38.577 46.4448 35.5934 46.038 33.4161 44.0443C32.1259 42.8643 31.2388 41.1961 30.5131 38.7549C29.7067 35.9474 29.1019 32.0414 28.6584 25.5314C28.3761 21.6253 28.4165 15.2781 28.86 11.8603C29.4648 6.73365 31.9646 4.17033 37.3271 3.23451C39.8269 2.78695 43.2138 2.46145 46.399 2.2987C48.9795 2.13595 53.1727 2.05457 55.5516 2.05457C57.8901 2.01388 62.1237 2.13595 64.6638 2.2987C67.8491 2.46145 71.2359 2.78695 73.7358 3.23451C79.0983 4.21102 81.5981 6.77434 82.2432 11.8603C82.6867 15.2374 82.727 21.5847 82.4448 25.5314Z" fill="#858585"/>
</g>
<defs>
<clipPath id="clip0_121_7130">
<rect width="111" height="71" fill="white"/>
</clipPath>
</defs>
</svg>
