<svg width="105" height="72" viewBox="0 0 105 72" fill="none" xmlns="http://www.w3.org/2000/svg">
<g clip-path="url(#clip0_121_5975)">
<path d="M64.1721 71.9975V57.4463H77.8913C77.9154 57.4463 78.2452 57.5291 78.3417 57.5531C80.4598 58.0659 82.1194 59.965 82.3098 62.1257C82.4304 63.4692 82.4143 65.873 82.3098 67.2272C82.1409 69.4574 80.4491 71.4205 78.2452 71.888C78.1273 71.912 77.8189 71.9975 77.7948 71.9975H64.1694H64.1721ZM67.7058 68.755H77.4248C78.087 68.5386 78.7091 68.0552 78.7761 67.3207C78.9316 65.6433 78.6528 63.7363 78.7761 62.0323C78.7278 61.645 78.3471 61.1375 78.0307 60.9212C77.9691 60.8784 77.5481 60.6888 77.5186 60.6888H67.7058V68.7523V68.755Z" fill="#858585"/>
<path d="M45.9111 57.4623L55.7561 57.4463C57.035 57.6867 58.2093 58.2396 59.0592 59.2518C60.9467 61.5007 60.0673 64.6177 60.2684 67.3207C59.9601 69.8073 58.1476 71.6422 55.6649 72.0001H46.0827C43.5383 71.5274 41.9082 69.9863 41.5757 67.4088C41.38 65.8998 41.38 63.5467 41.5757 62.0376C41.8975 59.559 43.4418 57.9431 45.9138 57.4623H45.9111ZM46.2838 60.7048C45.6269 60.9025 45.2194 61.3886 45.0129 62.0323V67.3207C45.1765 68.1033 45.6912 68.5653 46.4554 68.7576H55.2949C56.0215 68.592 56.5551 68.138 56.7374 67.4142V62.0349C56.5926 61.3699 56.0564 60.8357 55.3888 60.6915L46.2864 60.7075L46.2838 60.7048Z" fill="#858585"/>
<path d="M24.9262 57.446V63.0069H29.9023C30.3179 62.6196 30.6932 62.1869 31.1088 61.7996C32.4118 60.5844 33.6827 59.2729 35.0205 58.0977C35.2484 57.8974 35.4415 57.649 35.6694 57.446H40.3667L32.8301 64.8124L40.2728 71.9945H35.4844C34.8221 71.3588 34.1974 70.6804 33.5352 70.0448C32.503 69.0565 31.4359 68.0362 30.3688 67.0854C30.1088 66.853 29.8862 66.5752 29.6262 66.3402H24.9289V71.9945H21.489V57.4434H24.9289L24.9262 57.446Z" fill="#858585"/>
<path d="M83.7952 71.9972L91.8894 57.4487L96.8602 57.4434L105.003 71.9972H101.002C100.82 71.447 100.466 70.9555 100.177 70.4561C100.064 70.2611 99.7209 69.4572 99.552 69.4091L92.5409 69.3984C92.5409 69.329 92.5275 69.2782 92.4927 69.2168C92.1951 68.7227 91.8385 68.2526 91.5275 67.7665C91.4551 67.6543 90.7768 66.415 90.6776 66.5272L87.7015 71.9945H83.7952V71.9972ZM97.8388 66.3455L94.3507 60.1356L90.8625 66.3455H97.8388Z" fill="#858585"/>
<path d="M3.72137 57.4461V62.3125C3.72137 62.3339 3.86347 62.625 3.90368 62.6865C3.99752 62.8227 4.24955 62.9883 4.41577 63.0096L15.1161 63.0043C15.9606 63.2073 16.7408 63.6026 17.1939 64.3611C17.4084 64.7217 17.6309 65.3227 17.6738 65.7367C17.7623 66.6421 17.7409 68.4877 17.58 69.3531C17.4191 70.2185 17.0357 71.0224 16.2207 71.5192C16.0812 71.6047 15.2045 71.9946 15.1161 71.9946H0L1.91431 68.9418L13.5369 68.9364C13.746 68.9418 14.2313 68.485 14.2313 68.3328V66.2014C14.2313 66.2014 14.1026 66.0625 14.0919 66.0625H2.93044C2.93044 66.0625 2.88487 65.9957 2.8232 65.9824C1.65156 65.7553 0.51209 64.8686 0.369992 63.6079C0.281516 62.8253 0.281516 60.8649 0.369992 60.0823C0.420933 59.6283 0.731941 58.9552 1.0215 58.5973C1.68373 57.78 2.65697 57.3286 3.72137 57.4408V57.4461Z" fill="#858585"/>
<path d="M17.2046 57.4463L16.9151 58.0366L15.3895 60.4164L7.21484 60.4057L5.30054 57.4463H17.2046Z" fill="#858585"/>
<path d="M74.5052 23.5361C74.5052 36.5355 63.9309 47.0723 50.8874 47.0723C37.8438 47.0723 27.2695 36.5355 27.2695 23.5361C27.2695 10.5368 37.8438 0 50.8874 0C63.9309 0 74.5052 10.5368 74.5052 23.5361ZM72.4917 23.5361C72.4917 11.6452 62.8183 2.00319 50.8847 2.00319C38.9511 2.00319 29.2777 11.6425 29.2777 23.5361C29.2777 35.4298 38.9511 45.0691 50.8847 45.0691C62.8183 45.0691 72.4917 35.4298 72.4917 23.5361Z" fill="#858585"/>
<path d="M58.499 32.4221H60.2202C60.2846 32.4221 60.4615 32.1416 60.5017 32.0535C60.6331 31.7677 60.7564 31.335 60.8262 31.0332C61.6332 31.0118 62.4911 31.2522 63.2472 31.538C63.7459 31.7276 64.4081 32.0588 64.8585 32.3419C65.4779 32.7319 66.0892 33.2394 66.5905 33.7682C66.6227 33.8777 66.5101 33.9311 66.4511 33.9979C65.2446 35.3841 63.1185 36.3109 61.3329 36.5914C61.1774 36.6154 61.0862 36.7596 60.9146 36.6421C60.7001 36.4952 60.5232 35.3601 60.3087 35.3013L42.6563 35.3093C41.8466 35.5791 40.6187 36.5379 39.8385 36.6742C39.4149 36.7463 37.8679 36.7516 37.4309 36.6902C37.0984 36.6448 37.1064 36.4658 36.967 36.3189C35.9268 35.2158 35.1063 34.0433 34.3315 32.7372L33.4816 30.9424H39.2942C39.8707 31.1667 40.4498 31.3911 41.0182 31.6341C41.2943 31.7517 42.592 32.4247 42.7341 32.4247H44.2221C44.2784 32.4247 44.3669 32.2671 44.3669 32.1924C44.3669 32.0962 44.2784 32.0188 44.2677 31.9173C43.6162 25.5551 38.9135 22.6679 33.0473 21.4125C32.7711 21.3538 32.4547 21.303 32.1786 21.3057C32.1947 21.108 32.1544 20.8944 32.1786 20.7021C32.3368 19.2785 33.1009 17.0643 33.7122 15.7422C33.9588 15.2107 34.2966 14.7058 34.5058 14.169C37.6212 14.9275 40.8278 15.9051 43.5599 17.6118C43.9701 17.8682 44.2784 18.3784 44.7342 17.9243C44.7798 17.7587 44.0183 17.0082 43.8521 16.8559C42.4874 15.6059 40.6669 14.3533 39.0931 13.349C38.2003 12.7774 37.2673 12.2646 36.3611 11.7144C36.3423 11.653 36.5756 11.3245 36.6372 11.2497C37.5703 10.1092 38.935 9.11294 40.0825 8.19414L41.8118 7.13112C42.0021 7.21926 42.2193 7.27268 42.4123 7.35548C44.4661 8.23688 46.7933 10.1519 48.41 11.6663C49.3376 12.5344 50.1366 13.5253 51.0562 14.4067L51.1983 14.4548C51.327 14.3907 51.5066 14.3773 51.6192 14.3132C51.7694 14.2278 51.6702 14.2037 51.63 14.1129C51.3645 13.52 51.0187 12.927 50.6755 12.3768C49.1312 9.91155 47.0748 7.80152 44.9219 5.87579L45.635 5.56863C46.5547 5.37632 47.4877 5.10923 48.4073 4.99438C49.3269 4.87953 50.3967 4.82879 51.2895 4.90624C51.6032 4.93295 52.4531 4.82879 52.6434 4.94631C52.9866 5.1947 53.2574 5.50453 53.5711 5.7823C61.3597 12.6626 61.912 22.3153 58.7027 31.6582C58.6196 31.9039 58.5097 32.171 58.499 32.4274V32.4221ZM56.456 27.8842C56.456 26.5941 55.405 25.5471 54.11 25.5471C52.815 25.5471 51.764 26.5941 51.764 27.8842C51.764 29.1742 52.815 30.2212 54.11 30.2212C55.405 30.2212 56.456 29.1742 56.456 27.8842Z" fill="#858585"/>
</g>
<defs>
<clipPath id="clip0_121_5975">
<rect width="105" height="72" fill="white"/>
</clipPath>
</defs>
</svg>
